<?xml version="1.0" standalone="no"?>
<!DOCTYPE svg PUBLIC "-//W3C//DTD SVG 1.1//EN" "http://www.w3.org/Graphics/SVG/1.1/DTD/svg11.dtd" >
<!--
2013-9-30: Created.
-->
<svg>
<metadata>
Created by iconfont
</metadata>
<defs>

<font id="iconfont" horiz-adv-x="1024" >
  <font-face
    font-family="iconfont"
    font-weight="500"
    font-stretch="normal"
    units-per-em="1024"
    ascent="896"
    descent="-128"
  />
    <missing-glyph />
    
    <glyph glyph-name="x" unicode="x" horiz-adv-x="1001"
d="M281 543q-27 -1 -53 -1h-83q-18 0 -36.5 -6t-32.5 -18.5t-23 -32t-9 -45.5v-76h912v41q0 16 -0.5 30t-0.5 18q0 13 -5 29t-17 29.5t-31.5 22.5t-49.5 9h-133v-97h-438v97zM955 310v-52q0 -23 0.5 -52t0.5 -58t-10.5 -47.5t-26 -30t-33 -16t-31.5 -4.5q-14 -1 -29.5 -0.5
t-29.5 0.5h-32l-45 128h-439l-44 -128h-29h-34q-20 0 -45 1q-25 0 -41 9.5t-25.5 23t-13.5 29.5t-4 30v167h911zM163 247q-12 0 -21 -8.5t-9 -21.5t9 -21.5t21 -8.5q13 0 22 8.5t9 21.5t-9 21.5t-22 8.5zM316 123q-8 -26 -14 -48q-5 -19 -10.5 -37t-7.5 -25t-3 -15t1 -14.5
t9.5 -10.5t21.5 -4h37h67h81h80h64h36q23 0 34 12t2 38q-5 13 -9.5 30.5t-9.5 34.5q-5 19 -11 39h-368zM336 498v228q0 11 2.5 23t10 21.5t20.5 15.5t34 6h188q31 0 51.5 -14.5t20.5 -52.5v-227h-327z" />
    

    
    <glyph glyph-name="Home-change" unicode="&#58928;" d="M844.8 358.4c0 87.7-37 169.5-100.6 227.4-10.5 9.5-26.7 8.7-36.2-1.7-9.5-10.5-8.7-26.7 1.7-36.2 53.1-48.2 83.9-116.4 83.9-189.5 0-133-101.5-242.4-231.2-254.8l34.9 40.4c9.2 10.7 8 26.9-2.7 36.1-10.7 9.2-26.9 8-36.1-2.7l-76.6-88.9c-9.3-10.8-8-27.1 2.9-36.3l84.7-71.7c10.8-9.1 26.9-7.8 36.1 3 9.1 10.8 7.8 26.9-3 36.1l-38.5 32.6c157.2 13.5 280.7 145.4 280.7 306.2zM373.9 161.5c-58.1 48.4-92.3 119.8-92.3 196.8 0 141.4 114.6 256 256 256h0.7l-39.6-38.5c-10.1-9.9-10.4-26.1-0.5-36.2 9.9-10.1 26.1-10.4 36.2-0.5l84.1 81.8c10.2 9.9 10.3 26.3 0.3 36.4l-78.1 78.8c-10 10-26.2 10.1-36.2 0.1-10-10-10.1-26.2-0.1-36.2l34.3-34.6h-1.1c-169.7 0-307.2-137.5-307.2-307.2 0-92.4 41.1-178.2 110.7-236.2 10.9-9 27-7.6 36.1 3.3 9.1 11.1 7.6 27.2-3.3 36.2z"  horiz-adv-x="1024" />

    
    <glyph glyph-name="input_error" unicode="&#58905;" d="M602.24 384.256l247.616-247.552c60.288-60.352-30.208-150.848-90.56-90.56L511.744 293.76l-247.552-247.552c-60.288-60.288-150.848 30.208-90.496 90.56l247.552 247.552-247.552 247.552c-60.352 60.288 30.208 150.848 90.496 90.496l247.552-247.552 247.552 247.552c60.352 60.352 150.848-30.208 90.56-90.496L602.24 384.256z"  horiz-adv-x="1024" />

    
    <glyph glyph-name="checkbox_default" unicode="&#58906;" d="M128 832a64 64 0 0 1-64-64v-768a64 64 0 0 1 64-64h768a64 64 0 0 1 64 64V768a64 64 0 0 1-64 64H128z m0 64h768a128 128 0 0 0 128-128v-768a128 128 0 0 0-128-128H128a128 128 0 0 0-128 128V768a128 128 0 0 0 128 128z"  horiz-adv-x="1024" />

    
    <glyph glyph-name="btn_upload_file" unicode="&#58907;" d="M156.864-6.4v173.248a56.064 56.064 0 0 1-112.064 0v-229.312c0-30.912 25.088-56 56.064-56H926.08a56.064 56.064 0 0 1 56.064 56v229.312a56.064 56.064 0 1 1-112.064 0V-6.4H156.8zM567.36 688.512l216.896-207.68a56.064 56.064 0 1 1 77.44 80.96L549.696 860.672a56.064 56.064 0 0 1-94.784-40.64l2.112-641.92a56.064 56.064 0 0 1 112.064 0.384l-1.664 510.08zM471.808 860.352L164.928 562.048a56.064 56.064 0 0 1 78.08-80.384l306.944 298.368A56.064 56.064 0 0 1 471.872 860.352z"  horiz-adv-x="1024" />

    
    <glyph glyph-name="btn_upload_pictures" unicode="&#58908;" d="M975.872 144.32h-118.72V263.04a45.056 45.056 0 0 1-46.144 46.08 45.056 45.056 0 0 1-46.144-46.08v-125.312H632.96a45.056 45.056 0 0 1-46.208-46.144c0-26.368 19.84-46.144 46.144-46.144h125.312v-125.312c0-26.368 19.776-46.08 46.144-46.08s46.144 19.712 46.144 46.08V45.44h125.312c26.368 0 46.08 19.776 46.08 46.144 6.656 26.368-19.712 52.736-46.08 52.736z m-468.16-131.84H145.088a45.056 45.056 0 0 0-46.208 46.08V750.976c0 26.432 19.84 46.208 46.208 46.208H830.72c26.368 0 46.144-19.84 46.144-46.208v-349.44c0-26.368 19.84-46.144 46.144-46.144 26.432 0 46.208 19.84 46.208 46.144V797.12C969.28 849.856 923.072 896 870.336 896H98.88C46.144 896 0 849.856 0 797.12v-784.64c0-52.736 46.144-98.944 98.88-98.944h408.832c26.368 0 46.144 19.84 46.144 46.208 0 32.96-19.776 52.736-46.144 52.736z m0 145.024c19.776 39.552 65.92 65.92 112.064 65.92h52.8V282.88c0 52.736 32.96 98.88 79.104 118.656l-65.92 197.76-230.784-296.64-65.92 105.472-243.968-250.56h362.624zM388.992 579.52c0 39.552-32.96 72.512-72.512 72.512s-72.512-32.96-72.512-72.512 32.96-72.512 72.512-72.512 72.512 32.96 72.512 72.512z"  horiz-adv-x="1024" />

    
    <glyph glyph-name="input_successful" unicode="&#58909;" d="M808.768 620.288a64 64 0 0 0 92.48-88.576l-398.656-416.128a64 64 0 0 0-92.416 88.512l398.592 416.192zM217.216 315.712a64 64 0 1 0 92.672 88.32l191.168-200.704a64 64 0 0 0-92.736-88.32L217.216 315.776z"  horiz-adv-x="1024" />

    
    <glyph glyph-name="radio_default_active" unicode="&#58910;" d="M0 384c0 282.752 229.76 512 512 512 282.752 0 512-229.76 512-512 0-282.752-229.76-512-512-512-282.752 0-512 229.76-512 512z m320 0c0-105.792 85.952-192 192-192 105.792 0 192 85.952 192 192 0 105.792-85.952 192-192 192-105.792 0-192-85.952-192-192z"  horiz-adv-x="1024" />

    
    <glyph glyph-name="radio_default" unicode="&#58911;" d="M64 384c0-247.04 200.768-448 448-448 247.04 0 448 200.768 448 448 0 247.04-200.768 448-448 448-247.04 0-448-200.768-448-448zM0 384c0 282.752 229.76 512 512 512 282.752 0 512-229.76 512-512 0-282.752-229.76-512-512-512-282.752 0-512 229.76-512 512z"  horiz-adv-x="1024" />

    
    <glyph glyph-name="checkbox_default_act" unicode="&#58912;" d="M128 896h768a128 128 0 0 0 128-128v-768a128 128 0 0 0-128-128H128a128 128 0 0 0-128 128V768a128 128 0 0 0 128 128z m148.736-492.032c-25.6-28.48-26.432-66.368-8.32-86.208 12.032-13.248 57.664-58.688 136.896-136.32 32.448-24.832 63.296-22.592 92.48 6.656 29.184 29.248 133.76 134.784 313.728 316.608 27.328 38.528 27.776 69.888 1.344 94.016-26.368 24.064-59.072 20.48-97.92-10.88L448.832 321.792 363.648 403.968c-27.2 24.32-56.192 24.32-86.912 0z"  horiz-adv-x="1024" />

    
    <glyph glyph-name="search" unicode="&#58913;" d="M947.712 6.656l-196.8 193.664a379.904 379.904 0 0 1-22.336 519.488A389.76 389.76 0 0 1 453.376 832a389.76 389.76 0 0 1-275.072-112.192A378.688 378.688 0 0 1 64 448c0-102.656 40.576-199.168 114.304-271.744a389.76 389.76 0 0 1 275.136-112.192c87.104 0 169.088 27.52 237.44 79.552l198.976-195.84a40.96 40.96 0 0 1 58.304 0.448 41.28 41.28 0 0 1-0.448 58.368zM760.32 448a296.832 296.832 0 0 0-89.664-212.928 307.712 307.712 0 0 0-217.28-88.512 307.712 307.712 0 0 0-217.28 88.512A296.832 296.832 0 0 0 146.496 448c0 80.384 31.808 156.032 89.6 212.928a307.712 307.712 0 0 0 217.344 88.512c82.112 0 159.296-31.424 217.28-88.512a296.832 296.832 0 0 0 89.664-212.928z"  horiz-adv-x="1024" />

    
    <glyph glyph-name="switch_off" unicode="&#58914;" d="M457.6 438.4h90.496l-45.248 45.248-45.248-45.248z m45.248 45.248L713.6 694.4c60.352 60.352 150.848-30.144 90.496-90.496l-256-256a64 64 0 0 0-90.496 0l-256 256c-60.352 60.352 30.144 150.848 90.496 90.496l210.752-210.752z m45.248-45.248l256-256c60.352-60.352-30.144-150.848-90.496-90.496L502.848 302.656l-210.752-210.752c-60.352-60.352-150.848 30.144-90.496 90.496l256 256 45.248 45.248 45.248-45.248z"  horiz-adv-x="1024" />

    
    <glyph glyph-name="tip_error_message" unicode="&#58915;" d="M592.440889 384l154.851555 154.794667c53.589333 53.646222-26.851556 134.087111-80.497777 80.497777L512 464.440889 357.205333 619.292444c-53.646222 53.589333-134.087111-26.851556-80.497777-80.497777L431.559111 384l-154.851555-154.794667c-53.589333-53.646222 26.851556-134.087111 80.497777-80.497777L512 303.559111l154.794667-154.851555c53.646222-53.589333 134.087111 26.851556 80.497777 80.497777L592.440889 384zM512 896c282.624 0 512-229.376 512-512s-229.376-512-512-512-512 229.376-512 512 229.376 512 512 512z"  horiz-adv-x="1024" />

    
    <glyph glyph-name="select_arrow_down" unicode="&#58916;" d="M512 89.6L896 704H128z"  horiz-adv-x="1024" />

    
    <glyph glyph-name="switch_on" unicode="&#58917;" d="M385.472 214.656l407.168 411.52a64 64 0 0 0 91.008-90.048l-452.992-457.792a64 64 0 0 0-91.264 0.32L143.36 279.424a64 64 0 0 0 91.584 89.408l150.464-154.176z"  horiz-adv-x="1024" />

    
    <glyph glyph-name="tip_prompting" unicode="&#58918;" d="M512 896C229.376 896 0 666.624 0 384s229.376-512 512-512 512 229.376 512 512-229.376 512-512 512z m-0.512-847.872c-33.792 0-61.44 27.648-61.44 61.44 0 33.792 27.648 61.44 61.44 61.44 33.792 0 61.44-27.648 61.44-61.44 0-34.304-27.136-61.44-61.44-61.44z m62.464 243.2c0-33.792-27.648-61.44-61.44-61.44-33.792 0-61.44 27.648-61.44 61.44v368.64c0 33.792 27.648 61.44 61.44 61.44 33.792 0 61.44-27.648 61.44-61.44v-368.64z"  horiz-adv-x="1024" />

    
    <glyph glyph-name="tip_information" unicode="&#58919;" d="M512 896C229.376 896 0 666.624 0 384s229.376-512 512-512 512 229.376 512 512-229.376 512-512 512z m54.840889-243.541333a57.742222 57.742222 0 1 0-29.866667-111.559111 57.742222 57.742222 0 0 0 29.866667 111.502222zM440.092444 397.653333a48.64 48.64 0 0 0 34.417778 59.562667l42.097778 11.264A48.128 48.128 0 0 0 540.444444 471.04l0.796445-0.113778c1.706667-0.284444 3.413333-0.398222 5.063111-0.853333 0.967111-0.227556 1.877333-0.739556 2.844444-1.024l2.161778-0.853333c2.104889-0.796444 4.152889-1.706667 6.087111-2.787556 1.080889-0.568889 2.048-1.251556 3.072-1.934222a47.331556 47.331556 0 0 0 8.362667-6.997334 49.777778 49.777778 0 0 0 6.542222-8.533333l0.568889-0.739555a48.753778 48.753778 0 0 0 3.754667-8.248889c0.398222-1.194667 1.024-2.275556 1.308444-3.527111a48.241778 48.241778 0 0 0-1.706666-29.923556l-49.208889-183.864889c13.653333-5.518222 24.803556-17.009778 28.899555-32.426667a48.64 48.64 0 0 0-34.360889-59.505777l-46.990222-12.572445a48.469333 48.469333 0 0 0-48.355555 14.336c-0.625778 0.682667-1.365333 1.308444-1.934223 2.048-0.739556 0.853333-1.365333 1.820444-1.991111 2.730667a48.355556 48.355556 0 0 0-7.850666 41.130667l50.460444 188.416a48.241778 48.241778 0 0 0-27.875556 31.857777z"  horiz-adv-x="1024" />

    
    <glyph glyph-name="tip_question" unicode="&#58920;" d="M512-128c282.752 0 512 229.248 512 512S794.752 896 512 896 0 666.752 0 384s229.248-512 512-512zM384 588.288c7.978667 7.04 16.725333 13.696 26.197333 20.053333a188.16 188.16 0 0 0 66.688 27.605334c12.885333 2.688 26.88 4.053333 41.856 4.053333 20.437333 0 38.997333-2.816 55.765334-8.448 16.768-5.632 31.146667-13.653333 43.093333-24.106667 11.946667-10.410667 21.248-23.04 27.818667-37.802666 6.570667-14.805333 9.813333-31.317333 9.813333-49.621334 0-17.834667-2.56-33.28-7.68-46.250666-5.162667-13.013333-11.690667-24.32-19.541333-33.962667-7.850667-9.642667-16.384-17.92-25.514667-25.002667-9.130667-7.04-17.834667-13.653333-26.026667-19.882666a205.781333 205.781333 0 0 1-21.333333-18.261334 36.138667 36.138667 0 0 1-10.666667-20.224l-8.106666-51.370666h-59.477334l-5.973333 57.344a15.658667 15.658667 0 0 0-0.341333 2.986666v2.986667c0 10.325333 2.56 19.285333 7.722666 26.88 5.12 7.68 11.605333 14.805333 19.370667 21.504a335.36 335.36 0 0 0 24.96 19.498667c8.917333 6.357333 17.237333 13.226667 25.002667 20.608 7.68 7.381333 14.165333 15.786667 19.328 25.173333 5.162667 9.386667 7.722667 20.394667 7.722666 33.066667 0 8.405333-1.578667 16-4.693333 22.656a51.328 51.328 0 0 1-13.226667 17.28c-5.632 4.778667-12.373333 8.490667-20.224 11.093333a81.322667 81.322667 0 0 1-25.514666 3.84c-13.354667 0-24.704-1.450667-33.962667-4.394667a125.184 125.184 0 0 1-23.552-9.856 283.818667 283.818667 0 0 1-16.384-9.813333 22.485333 22.485333 0 0 0-11.946667-4.437333 19.2 19.2 0 0 0-18.304 10.538666L384 588.288z m66.517333-414.848c0 7.253333 1.322667 14.208 4.010667 20.778667 2.730667 6.570667 6.485333 12.202667 11.264 16.896a55.424 55.424 0 0 0 38.186667 15.488c7.253333 0 14.208-1.408 20.778666-4.266667 6.528-2.773333 12.16-6.528 16.853334-11.221333a53.248 53.248 0 0 0 15.488-37.674667c0-7.466667-1.408-14.464-4.224-20.906667a50.944 50.944 0 0 0-28.16-27.776 54.101333 54.101333 0 0 0-20.736-4.053333 55.04 55.04 0 0 0-38.186667 15.104c-4.778667 4.693333-8.533333 10.24-11.264 16.725333a53.717333 53.717333 0 0 0-4.010667 20.906667z"  horiz-adv-x="1024" />

    
    <glyph glyph-name="tip_success" unicode="&#58921;" d="M512 896C229.376 896 0 666.624 0 384s229.376-512 512-512 512 229.376 512 512-229.376 512-512 512z m-43.690667-592.270222l233.358223 239.900444a56.888889 56.888889 0 1 0 81.578666-79.36l-275.000889-282.680889a56.888889 56.888889 0 0 0-82.375111 0.853334L291.271111 326.656a56.888889 56.888889 0 0 0 83.171556 77.653333l93.866666-100.579555z"  horiz-adv-x="1024" />

    
    <glyph glyph-name="tab_arrow" unicode="&#58922;" d="M938.666667 576L873.016889 640 512 271.985778 150.983111 640 85.333333 576 512 128z"  horiz-adv-x="1024" />

    
    <glyph glyph-name="progressbar_complete" unicode="&#58923;" d="M1310.656 829.824a85.333333 85.333333 0 1 0 120.682667-120.682667L634.858667-87.338667a85.333333 85.333333 0 0 0-120.682667 0l-446.506667 446.506667a85.333333 85.333333 0 0 0 120.661334 120.682667L574.506667 93.674667 1310.656 829.824z"  horiz-adv-x="1493" />

    
    <glyph glyph-name="input_calendar" unicode="&#58924;" d="M475.456 268.8H548.48a36.48 36.48 0 0 1 36.608 37.248 36.48 36.48 0 0 1-36.608 37.184H475.52a36.48 36.48 0 0 1-36.608-37.12 36.48 36.48 0 0 1 36.608-37.248z m0-148.736H548.48a36.48 36.48 0 0 1 36.608 37.184 36.48 36.48 0 0 1-36.608 37.184H475.52a36.48 36.48 0 0 1-36.608-37.12 36.48 36.48 0 0 1 36.608-37.248z m402.24 669.568H731.52v37.12a36.48 36.48 0 1 1-73.152 0v-37.12H365.696v37.12a36.48 36.48 0 1 1-73.152 0v-37.12H146.304C65.856 789.632 0 722.56 0 640.832v-595.2c0-81.792 65.856-148.736 146.304-148.736h731.392c80.448 0 146.304 66.944 146.304 148.8V640.832c0 81.792-65.856 148.8-146.304 148.8z m73.152-743.936c0-40.96-32.896-74.432-73.152-74.432H146.304a73.984 73.984 0 0 0-73.152 74.432V492.032h877.696v-446.336z m0 520.704H73.152V640.832c0 40.96 32.896 74.368 73.152 74.368H292.48v-37.184a36.48 36.48 0 1 1 73.152 0v37.184h292.608v-37.184a36.48 36.48 0 1 1 73.152 0v37.184h146.24c40.256 0 73.152-33.472 73.152-74.368V566.4zM256 120.064h73.152a36.48 36.48 0 0 1 36.544 37.184 36.48 36.48 0 0 1-36.544 37.184H256a36.48 36.48 0 0 1-36.544-37.12 36.48 36.48 0 0 1 36.544-37.248z m438.848 148.8H768a36.48 36.48 0 0 1 36.544 37.184 36.48 36.48 0 0 1-36.544 37.184h-73.152a36.48 36.48 0 0 1-36.544-37.12 36.48 36.48 0 0 1 36.544-37.248zM256 268.8h73.152a36.48 36.48 0 0 1 36.544 37.184 36.48 36.48 0 0 1-36.544 37.184H256a36.48 36.48 0 0 1-36.544-37.12A36.48 36.48 0 0 1 256 268.8z m438.848-148.8H768a36.48 36.48 0 0 1 36.544 37.184 36.48 36.48 0 0 1-36.544 37.184h-73.152a36.48 36.48 0 0 1-36.544-37.12 36.48 36.48 0 0 1 36.544-37.248z"  horiz-adv-x="1024" />

    
    <glyph glyph-name="tip_question1" unicode="&#58926;" d="M512-64c247.424 0 448 200.576 448 448S759.424 832 512 832 64 631.424 64 384 264.576-64 512-64z m0-64C229.248-128 0 101.248 0 384S229.248 896 512 896s512-229.248 512-512-229.248-512-512-512zM384 588.288c7.978667 7.04 16.725333 13.696 26.197333 20.053333a188.16 188.16 0 0 0 66.688 27.605334c12.885333 2.688 26.88 4.053333 41.856 4.053333 20.437333 0 38.997333-2.816 55.765334-8.448 16.768-5.632 31.146667-13.653333 43.093333-24.106667 11.946667-10.410667 21.248-23.04 27.818667-37.802666 6.570667-14.805333 9.813333-31.317333 9.813333-49.621334 0-17.834667-2.56-33.28-7.68-46.250666-5.162667-13.013333-11.690667-24.32-19.541333-33.962667-7.850667-9.642667-16.384-17.92-25.514667-25.002667-9.130667-7.04-17.834667-13.653333-26.026667-19.882666a205.781333 205.781333 0 0 1-21.333333-18.261334 36.138667 36.138667 0 0 1-10.666667-20.224l-8.106666-51.370666h-59.477334l-5.973333 57.344a15.658667 15.658667 0 0 0-0.341333 2.986666v2.986667c0 10.325333 2.56 19.285333 7.722666 26.88 5.12 7.68 11.605333 14.805333 19.370667 21.504a335.36 335.36 0 0 0 24.96 19.498667c8.917333 6.357333 17.237333 13.226667 25.002667 20.608 7.68 7.381333 14.165333 15.786667 19.328 25.173333 5.162667 9.386667 7.722667 20.394667 7.722666 33.066667 0 8.405333-1.578667 16-4.693333 22.656a51.328 51.328 0 0 1-13.226667 17.28c-5.632 4.778667-12.373333 8.490667-20.224 11.093333a81.322667 81.322667 0 0 1-25.514666 3.84c-13.354667 0-24.704-1.450667-33.962667-4.394667a125.184 125.184 0 0 1-23.552-9.856 283.818667 283.818667 0 0 1-16.384-9.813333 22.485333 22.485333 0 0 0-11.946667-4.437333 19.2 19.2 0 0 0-18.304 10.538666L384 588.288z m66.517333-414.848c0 7.253333 1.322667 14.208 4.010667 20.778667 2.730667 6.570667 6.485333 12.202667 11.264 16.896a55.424 55.424 0 0 0 38.186667 15.488c7.253333 0 14.208-1.408 20.778666-4.266667 6.528-2.773333 12.16-6.528 16.853334-11.221333a53.248 53.248 0 0 0 15.488-37.674667c0-7.466667-1.408-14.464-4.224-20.906667a50.944 50.944 0 0 0-28.16-27.776 54.101333 54.101333 0 0 0-20.736-4.053333 55.04 55.04 0 0 0-38.186667 15.104c-4.778667 4.693333-8.533333 10.24-11.264 16.725333a53.717333 53.717333 0 0 0-4.010667 20.906667z"  horiz-adv-x="1024" />

    
    <glyph glyph-name="tip_information_" unicode="&#58927;" d="M512 896c282.624 0 512-229.376 512-512s-229.376-512-512-512S0 101.376 0 384 229.376 896 512 896z m0-960c247.424 0 448 200.576 448 448S759.424 832 512 832 64 631.424 64 384 264.576-64 512-64z m80.554667 701.824a64 64 0 1 0-33.109334-123.605333 64 64 0 0 0 33.109334 123.605333z m-141.098667-239.274667c-7.125333 24.832 8.661333 50.389333 35.2 57.088l43.093333 10.794667c7.594667 2.688 15.914667 3.541333 24.362667 2.432l0.853333-0.128c1.706667-0.256 3.413333-0.384 5.162667-0.810667 1.024-0.256 1.92-0.682667 2.901333-1.024l2.218667-0.768c2.133333-0.810667 4.266667-1.621333 6.229333-2.688 1.109333-0.554667 2.133333-1.237333 3.157334-1.877333 1.493333-0.896 2.986667-1.792 4.309333-2.858667 1.536-1.152 2.901333-2.474667 4.266667-3.84 0.725333-0.64 1.450667-1.28 2.090666-2.005333 1.706667-1.877333 3.242667-3.925333 4.650667-6.101333 0.170667-0.256 0.384-0.512 0.512-0.810667 1.536-2.432 2.773333-5.077333 3.84-7.850667 0.426667-1.152 1.024-2.176 1.365333-3.370666a43.52 43.52 0 0 0-1.706666-28.714667l-50.432-176.213333c13.994667-5.290667 25.386667-16.341333 29.568-31.061334 7.125333-24.874667-8.618667-50.432-35.157334-57.088l-48.085333-12.074666c-18.56-4.693333-37.333333 1.28-49.493333 13.738666-0.64 0.64-1.365333 1.28-1.962667 1.962667-0.725333 0.853333-1.365333 1.792-2.048 2.645333a44.032 44.032 0 0 0-8.021333 39.424l51.669333 180.608a47.36 47.36 0 0 0-28.544 30.592z"  horiz-adv-x="1024" />

    
    <glyph glyph-name="error_point" unicode="&#58925;" d="M591.786667 686.421333l206.848-214.869333a14.08 14.08 0 0 1 19.968 0l43.178666 43.093333a14.08 14.08 0 0 1 0 19.968l-260.437333 270.506667a84.992 84.992 0 0 1-2.304 2.389333L558.933333 849.237333A14.08 14.08 0 0 1 548.096 853.333333a14.08 14.08 0 0 1-10.752-4.096l-41.642667-43.178666-261.290666-271.445334a14.08 14.08 0 0 1 0-19.968l43.178666-43.093333a14.08 14.08 0 0 1 19.968 0L502.528 684.373333v-754.176c0-7.850667 6.314667-14.165333 14.165333-14.165333h61.013334a14.08 14.08 0 0 1 14.08 14.165333V686.421333z"  horiz-adv-x="1109" />

    
    <glyph glyph-name="icon" unicode="&#58880;" d="M399.019 383.86699999999996l292.155 292.16c12.28 12.27 12.28 32.186 0 44.457-12.27 12.28099999-32.186 12.281-44.457 0l-314.388-314.388c-12.28-12.27-12.28-32.186 0-44.457l314.388-314.387c6.136-6.14 14.183-9.211 22.228-9.211s16.092 3.071 22.228 9.21099999c12.28 12.27 12.28 32.186 1e-8 44.45700001l-292.15500001 292.159z"  horiz-adv-x="1024" />

    
    <glyph glyph-name="icon-copy" unicode="&#58938;" d="M624.981 384.133l-292.155-292.16c-12.28-12.27-12.28-32.186 0-44.457 12.27-12.28099999 32.186-12.281 44.457 0l314.388 314.388c12.28 12.27 12.28 32.186 0 44.457l-314.388 314.387c-6.136 6.14-14.183 9.211-22.228 9.211s-16.092-3.071-22.228-9.21099999c-12.28-12.27-12.28-32.186-1e-8-44.45700001l292.15500001-292.159z"  horiz-adv-x="1024" />

    
    <glyph glyph-name="information_ico_search" unicode="&#58933;" d="M910.848 35.072L782.1312 163.84000000000003c-1.3312 1.3312-2.9696 1.9456-4.4032 2.9696 125.3376 149.8624 117.8624 373.9136-22.8864 514.6624a379.2384 379.2384 0 0 1-269.9264 111.872A379.392 379.392 0 0 1 214.9888 681.472c-148.8384-148.8384-148.8384-391.0656 0-539.9552a379.5456 379.5456 0 0 1 269.9264-111.7696c90.5216 0 176.128 31.4368 244.736 88.8832 1.024-1.3824 1.6384-3.0208 2.816-4.3008l128.8704-128.8192a35.0208 35.0208 0 0 1 49.5616 49.5616zM484.864 99.84000000000003a309.4528 309.4528 0 0 0-220.3136 91.3408 312.1152 312.1152 0 0 0 0 440.832A309.6576 309.6576 0 0 0 484.864 723.2c83.2512 0 161.5872-32.4096 220.3648-91.2384a311.8592 311.8592 0 0 0 0-440.832 309.248 309.248 0 0 0-220.3648-91.3408z"  horiz-adv-x="1024" />

    


  </font>
</defs>
</svg>
